<svg version="1.1" xmlns="http://www.w3.org/2000/svg" width="512" height="512" viewBox="0 0 512 512">
	<path fill="#6E6E6E" d="M207.875,196.344c-35.859,0-64.891,28.625-64.891,63.969c0,35.359,29.031,64,64.891,64
        c35.828,0,64.875-28.641,64.875-64C272.75,224.969,243.703,196.344,207.875,196.344z" />
	<path fill="#6E6E6E" class="st0" d="M474.781,79.063H37.219C16.656,79.063,0,95.5,0,115.75v280.5c0,20.266,16.656,36.688,37.219,36.688h437.563
        c20.563,0,37.219-16.422,37.219-36.688v-280.5C512,95.5,495.344,79.063,474.781,79.063z M207.875,379
        c-66.469,0-120.344-53.125-120.344-118.688c0-65.547,53.875-118.672,120.344-118.672c66.453,0,120.328,53.125,120.328,118.672
        C328.203,325.875,274.328,379,207.875,379z M455.781,196.156h-59.063v-58.25h59.063V196.156z" />
</svg>