<svg xmlns="http://www.w3.org/2000/svg" xml:space="preserve" width="157" height="141" overflow="hidden">
    <path fill="#FFF" stroke="#000" stroke-width="10.73"
        d="M5.37 61.9c0-31.22 25.31-56.53 56.54-56.53s56.54 25.31 56.54 56.54v56.53H61.9c-31.22 0-56.53-25.31-56.53-56.54Z" />
    <path
        d="M46.99 91.08C33 91.08 24.26 80.11 24.26 67.1c0-13.02 8.74-23.98 22.73-23.98 11.33 0 18.99 7.39 21.04 17.02H56.62c-1.51-4.28-5.08-6.86-9.63-6.86-7.04 0-11.67 5.52-11.67 13.82 0 8.29 4.63 13.81 11.67 13.81 4.73 0 8.38-2.76 9.81-7.31h11.32c-1.87 9.9-9.63 17.48-21.13 17.48M72.63 89.83V44.36h10.7v4.91c2.49-3.3 6.42-5.44 12.3-5.44h2.76v10.52h-2.85c-4.01 0-6.51.89-8.38 2.58-2.14 1.79-3.39 4.73-3.39 9.18v23.72z" />
    <path fill="#FFC000"
        d="m152.444 124.167-32.99-54.542c-1.266-2.166-4.557-2.166-5.823 0l-33.075 54.542c-1.265 2.165.338 4.812 2.953 4.812h65.981c2.616 0 4.22-2.647 2.954-4.812m-38.475-41.709h5.062v28.073h-5.062zm2.531 39.302c-2.362 0-4.219-1.764-4.219-4.01s1.857-4.01 4.22-4.01 4.218 1.764 4.218 4.01-1.856 4.01-4.219 4.01" />
</svg>