<svg width="157" height="141" xmlns="http://www.w3.org/2000/svg" xmlns:xlink="http://www.w3.org/1999/xlink" xml:space="preserve" overflow="hidden">
<g transform="translate(-1359 -1371)">
<g>
<g>
<g>
<path d="M1364.37 1432.9C1364.37 1401.68 1389.68 1376.37 1420.91 1376.37 1452.14 1376.37 1477.45 1401.68 1477.45 1432.91L1477.45 1489.44 1420.9 1489.44C1389.68 1489.44 1364.37 1464.13 1364.37 1432.9Z" stroke="#000000" stroke-width="10.7304" fill="#FFFFFF"/>
<path d="M1405.99 1462.08C1392 1462.08 1383.26 1451.11 1383.26 1438.1 1383.26 1425.08 1392 1414.12 1405.99 1414.12 1417.32 1414.12 1424.98 1421.51 1427.03 1431.14L1415.62 1431.14C1414.11 1426.86 1410.54 1424.28 1405.99 1424.28 1398.95 1424.28 1394.32 1429.8 1394.32 1438.1 1394.32 1446.39 1398.95 1451.91 1405.99 1451.91 1410.72 1451.91 1414.37 1449.15 1415.8 1444.6L1427.12 1444.6C1425.25 1454.5 1417.49 1462.08 1405.99 1462.08Z"/>
<path d="M1431.63 1460.83 1431.63 1415.36 1442.33 1415.36 1442.33 1420.27C1444.82 1416.97 1448.75 1414.83 1454.63 1414.83L1457.39 1414.83 1457.39 1425.35 1454.54 1425.35C1450.53 1425.35 1448.03 1426.24 1446.16 1427.93 1444.02 1429.72 1442.77 1432.66 1442.77 1437.11L1442.77 1460.83 1431.63 1460.83Z"/>
</g>
</g>
</g>
<g>
<g>
<g>
<path d="M72.6687 64.1667 41.3073 9.625C40.1042 7.45937 36.976 7.45937 35.7729 9.625L4.33125 64.1667C3.12812 66.3323 4.65208 68.9792 7.13854 68.9792L38.5 68.9792 69.8615 68.9792C72.3479 68.9792 73.8719 66.3323 72.6687 64.1667ZM36.0938 22.4583 40.9062 22.4583 40.9062 50.5312 36.0938 50.5312 36.0938 22.4583ZM38.5 61.7604C36.2542 61.7604 34.4896 59.9958 34.4896 57.75 34.4896 55.5042 36.2542 53.7396 38.5 53.7396 40.7458 53.7396 42.5104 55.5042 42.5104 57.75 42.5104 59.9958 40.7458 61.7604 38.5 61.7604Z" fill="#FFC000" transform="matrix(1.05195 0 0 1 1435 1431)"/>
</g>
</g>
</g>
</g>
</svg>
