<svg xmlns="http://www.w3.org/2000/svg" viewBox="0 0 41 41">
    <path fill="#fff" stroke="#000" stroke-width="3.12"
        d="M1.56 18c0-9.08 7.361-16.44 16.441-16.44s16.443 7.362 16.443 16.442V34.44H18C8.92 34.44 1.56 27.08 1.56 18Z" />
    <path
        d="M13.665 26.483c-4.07 0-6.61-3.189-6.61-6.973 0-3.785 2.54-6.973 6.61-6.973 3.292 0 5.522 2.152 6.118 4.951h-3.318c-.441-1.244-1.478-1.996-2.8-1.996-2.048 0-3.396 1.607-3.396 4.018s1.348 4.018 3.396 4.018c1.374 0 2.437-.804 2.852-2.126h3.292c-.545 2.878-2.8 5.08-6.144 5.08M21.12 26.12V12.9h3.11v1.426c.726-.96 1.866-1.582 3.577-1.582h.804v3.06h-.83c-1.166 0-1.892.258-2.436.75-.622.52-.985 1.375-.985 2.67v6.896z" />
    <rect width="16" height="16" x="25" y="25" rx="1.5" ry="1.5" style="fill:#ae3f28" />
    <path d="m28 28 10.4 10.4M28 38.4 38.4 28" style="stroke:#fff;stroke-width:2;stroke-linecap:round" />
</svg>