<svg xmlns="http://www.w3.org/2000/svg" width="800" height="800" viewBox="0 0 512 512">
    <path fill="#6E6E6E"
        d="M0 48v416h512V48zm228 40h56v32h-56zM92 424H36v-32h56zm0-304H36V88h56zm96 304h-56v-32h56zm0-304h-56V88h56zm96 304h-56v-32h56zm27.188-166.141-92.156 55.016c-.672.391-1.5.406-2.172.016s-1.094-1.094-1.094-1.891V201c0-.781.422-1.5 1.094-1.875a2.16 2.16 0 0 1 2.172.016l92.156 55.016c.656.375 1.047 1.094 1.047 1.844a2.15 2.15 0 0 1-1.047 1.858M380 424h-56v-32h56zm0-304h-56V88h56zm96 304h-56v-32h56zm0-304h-56V88h56z" />
</svg>