<svg xmlns="http://www.w3.org/2000/svg" width="800" height="800" viewBox="0 0 48 48">
    <g data-name="Layer 2">
        <g fill="#6E6E6E" data-name="icons Q2">
            <path stroke="#6E6E6E" stroke-linecap="round" stroke-linejoin="round" stroke-width="2"
                d="M46 24a12.9 12.9 0 0 0-4-9.4V7a2 2 0 0 0-2-2H4a2 2 0 0 0-2 2v34a2 2 0 0 0 2 2h22v1.6c0 2 2 3.1 3.3 1.8L33 43l3.7 3.4c1.3 1.3 3.3.2 3.3-1.8v-9.7A12.9 12.9 0 0 0 46 24m-13-9a9 9 0 1 1-9 9 9 9 0 0 1 9-9m-21-1h12.7L23 15.7a11.4 11.4 0 0 0-1.5 2.3H12a2 2 0 0 1 0-4m0 8h8.2a6.5 6.5 0 0 0-.2 2 6.8 6.8 0 0 0 .2 2H12a2 2 0 0 1 0-4m0 12a2 2 0 0 1 0-4h9.5a11.4 11.4 0 0 0 1.5 2.3 13.7 13.7 0 0 0 1.7 1.7Z" />
            <circle cx="33" cy="24" r="5" />
        </g>
    </g>
</svg>